
<svg width="200" height="160" viewBox="0 0 200 160" fill="none" xmlns="http://www.w3.org/2000/svg">
  <path d="M20 40H180V130C180 141.046 171.046 150 160 150H40C28.9543 150 20 141.046 20 130V40Z" fill="#8B4513"/>
  <path d="M20 50H180V70H20V50Z" fill="#A0522D"/>
  <path d="M30 40H170C170 29 160 10 100 10C40 10 30 29 30 40Z" fill="#A0522D"/>
  <rect x="90" y="40" width="20" height="20" fill="#FFD700"/>
  <circle cx="65" cy="95" r="15" fill="#FFD166"/>
  <circle cx="105" cy="105" r="15" fill="#FFD166"/>
  <circle cx="135" cy="90" r="15" fill="#FFD166"/>
  <circle cx="85" cy="120" r="15" fill="#FFD166"/>
  <circle cx="125" cy="125" r="15" fill="#FFD166"/>
  <path d="M95 45L100 50L105 45" stroke="#8B4513" stroke-width="2"/>
</svg>
